 <svg version="1.0" xmlns="http://www.w3.org/2000/svg" width="900.000000pt" height="852.000000pt" viewBox="0 0 900.000000 852.000000" preserveAspectRatio="xMidYMid meet">  <g transform="translate(0.000000,852.000000) scale(0.100000,-0.100000)" fill="#5213c9" stroke="none"> <path d="M1830 8020 c-93 -8 -166 -21 -250 -43 -116 -31 -170 -49 -175 -58 -4 -5 -13 -9 -22 -9 -23 0 -166 -75 -262 -137 -124 -81 -319 -279 -402 -408 -118 -184 -185 -350 -221 -550 -16 -91 -22 -390 -8 -455 33 -161 48 -215 94 -346 52 -145 206 -374 334 -495 60 -58 190 -161 247 -196 66 -42 223 -115 300 -141 177 -59 225 -67 425 -68 102 -1 193 -4 203 -9 12 -5 25 -1 40 13 17 16 44 24 108 31 65 7 96 16 124 35 21 14 50 26 65 26 36 0 291 130 349 177 25 21 57 46 71 55 43 27 180 170 237 246 56 76 133 197 133 210 0 4 14 34 30 66 17 32 36 82 41 110 6 28 19 60 29 71 10 11 21 38 25 60 13 82 14 85 40 85 13 0 27 5 30 10 4 6 -5 10 -20 10 l-26 0 8 73 c4 39 8 146 8 237 -1 176 -13 245 -72 420 -114 338 -360 628 -685 809 -223 124 -544 192 -798 171z m375 -129 c44 -10 94 -23 110 -29 17 -6 48 -16 70 -22 22 -6 58 -20 80 -30 22 -11 65 -31 95 -45 64 -29 142 -77 195 -120 86 -70 248 -233 272 -275 14 -25 34 -54 44 -65 34 -38 127 -232 153 -321 50 -168 56 -193 61 -291 13 -215 13 -467 0 -493 -7 -14 -22 -44 -34 -66 -11 -23 -21 -52 -21 -66 0 -13 -10 -41 -21 -63 -25 -46 -83 -154 -111 -206 -10 -20 -30 -47 -43 -59 -14 -13 -25 -30 -25 -37 0 -19 -208 -221 -265 -258 -26 -16 -65 -42 -88 -57 -75 -48 -218 -118 -241 -118 -13 0 -59 -18 -103 -40 -74 -38 -86 -41 -169 -42 -49 -1 -116 1 -149 5 -33 4 -114 12 -180 17 -196 17 -324 50 -477 123 -98 47 -209 115 -268 165 -108 91 -159 140 -175 167 -10 17 -29 41 -43 55 -30 31 -92 121 -92 135 0 5 -9 21 -20 35 -29 37 -76 138 -100 217 -12 37 -25 75 -30 84 -5 9 -18 77 -29 150 -18 124 -20 176 -10 389 3 61 31 198 48 233 12 24 21 49 21 57 0 28 86 200 149 295 135 206 395 422 596 495 11 4 32 12 47 18 76 31 181 61 248 72 41 6 82 13 90 16 42 10 341 -8 415 -25z"></path> <path d="M6965 8023 c-121 -6 -380 -64 -453 -102 -9 -5 -41 -19 -70 -30 -222 -90 -488 -319 -627 -541 -83 -132 -158 -317 -201 -490 -20 -83 -26 -329 -11 -472 7 -74 7 -78 -13 -78 -29 0 -25 -14 9 -27 23 -8 31 -20 39 -54 27 -110 78 -258 97 -279 8 -9 15 -26 15 -38 0 -11 11 -33 25 -48 13 -14 27 -36 31 -47 4 -12 25 -46 48 -76 23 -30 55 -73 72 -96 49 -65 157 -168 252 -240 92 -70 319 -188 385 -199 20 -4 45 -16 55 -26 13 -14 37 -22 83 -26 76 -7 128 -21 151 -41 11 -10 24 -13 35 -8 10 5 101 8 203 9 199 1 241 8 425 69 75 24 240 102 304 142 81 51 140 98 234 185 133 123 286 348 343 505 44 122 53 153 95 343 12 58 11 348 -2 414 -37 182 -70 302 -90 323 -5 5 -9 15 -9 22 0 25 -64 147 -129 248 -69 106 -225 276 -321 349 -281 215 -627 325 -975 309z m355 -133 c69 -12 130 -26 135 -30 6 -5 44 -21 85 -36 99 -35 150 -61 244 -126 43 -29 86 -57 95 -63 18 -11 215 -208 241 -240 24 -32 60 -85 60 -92 0 -3 16 -28 35 -54 19 -27 35 -55 35 -62 0 -6 10 -28 22 -47 11 -19 27 -55 34 -80 7 -25 22 -70 33 -101 36 -101 53 -202 57 -349 5 -179 -18 -372 -54 -444 -7 -15 -20 -52 -27 -80 -8 -29 -27 -77 -43 -107 -64 -119 -84 -155 -98 -170 -8 -8 -14 -19 -14 -23 0 -10 -143 -176 -197 -227 -26 -26 -66 -59 -88 -73 -22 -15 -62 -43 -90 -62 -119 -83 -339 -171 -490 -194 -100 -16 -116 -18 -220 -25 -55 -4 -126 -11 -158 -16 -84 -14 -214 5 -277 42 -39 23 -85 39 -109 39 -15 0 -42 11 -61 25 -19 14 -42 25 -52 25 -9 0 -32 12 -50 28 -18 15 -55 38 -83 52 -27 13 -56 32 -63 42 -7 10 -25 24 -40 32 -35 18 -166 148 -212 210 -19 26 -49 63 -67 83 -17 20 -35 48 -38 62 -4 14 -20 42 -37 64 -39 48 -68 105 -68 131 0 10 -12 44 -27 75 -31 64 -32 75 -38 351 -7 338 24 494 145 732 90 177 185 297 332 418 112 92 231 170 260 170 9 0 20 5 23 11 9 14 99 53 160 68 28 7 59 17 70 21 22 9 49 14 165 30 41 6 80 12 85 14 28 11 275 -5 385 -24z"></path> <path d="M4175 6543 c-49 -7 -115 -18 -145 -24 -30 -6 -77 -14 -105 -18 -27 -4 -66 -12 -85 -19 -19 -6 -62 -19 -95 -28 -146 -39 -315 -112 -315 -135 0 -9 32 -13 75 -10 24 2 123 30 147 42 10 5 25 9 33 9 8 0 23 4 33 9 9 6 44 17 77 25 33 8 86 22 118 31 32 9 62 13 67 10 5 -3 35 1 67 9 32 8 69 15 83 15 14 0 70 6 125 14 137 19 306 20 450 2 66 -9 158 -19 205 -25 111 -12 191 -30 212 -48 9 -8 21 -11 27 -8 5 4 20 2 33 -3 13 -5 48 -14 78 -21 30 -7 60 -16 65 -20 38 -27 225 -53 225 -31 0 22 -164 93 -315 136 -33 9 -80 23 -105 31 -25 8 -59 14 -76 14 -17 0 -51 7 -74 15 -23 8 -68 15 -99 15 -31 1 -83 7 -116 15 -78 19 -461 18 -590 -2z"></path> <path d="M2057 5050 c-15 -19 -31 -40 -36 -46 -9 -11 -33 -60 -91 -189 -27 -59 -65 -168 -122 -344 -21 -66 -60 -247 -79 -366 -21 -135 -24 -193 -24 -470 1 -337 22 -522 85 -745 11 -41 24 -91 29 -110 45 -193 196 -523 361 -785 83 -132 239 -323 375 -459 130 -130 346 -307 453 -371 9 -6 35 -22 57 -36 69 -45 202 -115 325 -172 128 -59 422 -157 471 -157 16 0 42 -6 57 -14 15 -7 54 -17 87 -20 33 -4 74 -11 90 -16 98 -30 642 -29 795 1 272 52 395 85 555 146 369 142 673 339 971 630 132 129 298 332 384 468 170 270 306 568 366 800 7 28 20 77 29 110 22 83 43 190 63 325 23 163 23 670 -1 825 -28 188 -56 325 -77 381 -7 16 -15 47 -20 69 -15 72 -127 362 -172 445 -26 48 -65 105 -82 119 -14 12 -16 11 -16 -5 0 -25 52 -198 61 -202 4 -2 15 -29 25 -60 9 -31 23 -64 30 -72 7 -8 24 -53 38 -100 14 -47 32 -103 40 -125 8 -22 15 -55 16 -74 0 -37 15 -98 35 -146 7 -16 16 -57 19 -90 9 -75 27 -167 36 -180 11 -14 14 -114 13 -425 -1 -221 -4 -290 -18 -350 -10 -41 -21 -102 -25 -135 -4 -34 -12 -70 -17 -80 -6 -11 -18 -63 -28 -115 -18 -94 -62 -243 -105 -350 -73 -186 -231 -483 -269 -509 -12 -7 -21 -20 -21 -29 0 -8 -13 -27 -28 -41 -16 -14 -43 -54 -61 -88 -22 -41 -40 -63 -56 -67 -16 -4 -25 -14 -27 -33 -2 -18 -14 -35 -35 -48 -18 -11 -32 -28 -33 -37 0 -10 -10 -23 -22 -29 -12 -7 -36 -27 -54 -45 -17 -19 -36 -34 -42 -34 -6 0 -14 -9 -17 -20 -4 -11 -19 -27 -35 -35 -16 -8 -31 -23 -34 -32 -3 -10 -16 -23 -28 -28 -13 -6 -30 -25 -38 -42 -8 -18 -22 -33 -31 -33 -8 0 -29 -16 -46 -35 -17 -19 -41 -35 -52 -35 -11 0 -25 -9 -31 -20 -6 -11 -21 -20 -34 -20 -15 0 -26 -7 -29 -20 -3 -11 -21 -27 -41 -35 -20 -9 -36 -19 -36 -24 0 -4 -17 -16 -37 -27 -21 -10 -46 -25 -56 -34 -26 -21 -84 -55 -142 -83 -132 -65 -207 -98 -237 -104 -18 -3 -40 -11 -48 -18 -19 -16 -107 -45 -135 -45 -12 0 -55 -11 -96 -25 -41 -14 -83 -24 -93 -21 -10 3 -32 -2 -47 -10 -15 -7 -41 -14 -56 -14 -15 0 -47 -7 -70 -15 -33 -12 -125 -20 -268 -26 -5 0 -27 4 -48 9 -29 8 -45 7 -67 -5 -16 -8 -34 -12 -39 -9 -5 3 -89 8 -187 10 -135 4 -190 9 -224 22 -25 9 -63 20 -85 25 -61 12 -128 30 -147 40 -10 5 -23 6 -31 3 -8 -3 -34 2 -58 9 -24 8 -57 18 -74 22 -16 3 -43 13 -60 20 -16 7 -59 24 -93 36 -35 12 -66 28 -69 36 -3 7 -15 13 -27 13 -37 0 -101 37 -114 65 -10 22 -17 26 -38 21 -22 -6 -82 19 -104 43 -3 4 -23 15 -44 26 -22 11 -49 30 -60 42 -12 12 -32 23 -46 25 -17 2 -26 10 -28 26 -2 12 -10 22 -19 22 -8 0 -28 10 -43 23 -15 12 -53 39 -85 61 -31 21 -60 49 -65 62 -6 14 -18 24 -29 24 -12 0 -25 11 -33 27 -7 15 -26 34 -41 41 -15 7 -27 17 -27 21 0 4 -22 31 -50 60 -27 29 -50 56 -50 62 0 5 -8 9 -17 9 -19 1 -133 141 -133 164 0 7 -7 19 -15 26 -8 7 -15 9 -15 5 0 -4 -7 -2 -15 5 -8 7 -15 23 -15 36 0 14 -13 33 -35 51 -19 15 -35 37 -35 48 0 11 -9 25 -21 30 -21 10 -59 71 -123 199 -19 37 -42 76 -51 86 -12 13 -15 28 -10 48 5 24 2 31 -13 36 -21 7 -52 66 -52 99 0 13 -4 27 -9 33 -5 5 -17 36 -27 69 -10 33 -26 75 -36 93 -10 18 -18 41 -18 52 0 11 -6 34 -14 52 -26 64 -38 104 -51 173 -7 39 -23 120 -35 180 -20 98 -23 142 -24 415 -1 346 4 433 32 540 11 41 23 102 26 135 10 83 34 168 54 183 11 8 15 24 14 48 -2 20 1 41 6 48 5 6 19 40 31 76 13 36 29 72 37 80 7 9 20 47 28 85 8 40 21 72 30 77 9 5 16 20 16 34 0 13 9 52 21 86 11 33 19 70 17 81 -3 19 -6 17 -31 -13z"></path> <path d="M4435 5050 c-22 -16 -46 -35 -54 -41 -7 -7 -61 -47 -120 -90 -58 -42 -124 -92 -146 -109 -22 -17 -76 -58 -120 -90 -44 -32 -91 -70 -105 -84 -14 -14 -29 -26 -33 -26 -6 0 -563 -413 -597 -443 -33 -29 -607 -455 -642 -475 -47 -29 -54 -49 -27 -79 13 -12 27 -23 32 -23 5 0 26 -13 47 -30 21 -16 41 -30 44 -30 3 0 51 -35 107 -77 55 -43 115 -88 132 -99 18 -12 41 -31 51 -43 11 -11 24 -21 31 -21 6 0 24 -13 38 -30 15 -16 32 -30 38 -30 6 0 26 -12 44 -27 18 -16 58 -46 89 -68 31 -22 56 -42 56 -45 0 -3 25 -21 55 -39 30 -19 55 -38 55 -43 0 -4 12 -14 28 -22 15 -8 37 -22 50 -33 12 -10 40 -31 63 -48 22 -16 54 -42 72 -56 18 -14 46 -33 63 -42 17 -9 34 -23 37 -30 3 -8 36 -35 74 -60 37 -25 78 -53 91 -64 13 -10 42 -33 65 -50 23 -18 49 -39 57 -46 8 -7 38 -28 65 -46 28 -19 54 -40 58 -47 4 -8 14 -14 21 -14 7 0 25 -13 41 -30 16 -17 34 -30 39 -30 6 0 22 -12 35 -26 13 -14 39 -31 58 -39 18 -8 33 -18 33 -23 0 -18 107 -92 132 -92 15 0 45 15 70 35 23 20 54 45 68 55 14 11 43 35 65 53 22 18 51 41 65 50 14 9 45 33 70 52 25 19 63 47 85 61 22 14 45 31 50 38 6 6 40 33 77 59 36 26 72 53 80 60 7 7 30 23 51 36 20 12 37 27 37 32 0 5 12 12 26 15 14 4 30 17 34 30 5 13 17 24 26 24 9 0 34 15 54 33 21 17 64 51 97 75 32 24 78 58 103 77 25 19 66 49 93 66 26 17 47 35 47 40 0 5 8 13 18 16 24 10 172 117 202 148 14 14 29 25 34 25 4 0 40 26 79 58 40 32 89 68 109 80 20 13 38 27 40 32 4 12 56 48 150 105 78 48 94 66 81 90 -5 7 -44 37 -88 66 -44 30 -82 57 -85 60 -8 10 -462 349 -467 349 -3 0 -14 11 -25 25 -11 14 -23 25 -28 25 -7 0 -579 425 -632 469 -7 6 -125 95 -263 197 -137 102 -261 197 -276 210 -33 31 -55 30 -104 -6z m103 -78 c31 -11 72 -38 105 -68 29 -27 66 -57 82 -66 17 -10 57 -38 90 -62 33 -25 85 -62 115 -82 63 -43 102 -73 145 -109 17 -14 49 -41 71 -60 23 -19 46 -35 52 -35 6 0 15 -6 19 -14 4 -7 33 -30 63 -49 45 -30 236 -172 275 -205 6 -5 24 -17 40 -27 17 -11 38 -27 48 -37 10 -10 26 -18 36 -18 10 0 23 -11 29 -24 6 -13 29 -34 51 -47 23 -12 41 -26 41 -31 0 -5 25 -24 55 -43 30 -20 78 -56 105 -80 28 -25 57 -45 65 -45 8 0 20 -8 27 -17 7 -10 36 -33 63 -52 95 -65 185 -142 185 -158 0 -18 -31 -47 -128 -120 -35 -27 -83 -64 -107 -83 -24 -19 -68 -53 -99 -74 -31 -22 -56 -43 -56 -48 0 -4 -19 -20 -42 -35 -24 -16 -47 -32 -53 -36 -54 -42 -144 -105 -171 -120 -19 -9 -34 -21 -34 -27 0 -5 -24 -25 -53 -43 -29 -19 -59 -40 -67 -48 -8 -8 -44 -34 -80 -57 -36 -23 -71 -51 -78 -62 -7 -11 -21 -20 -31 -20 -11 0 -28 -15 -40 -35 -11 -20 -37 -42 -58 -52 -21 -10 -54 -31 -74 -48 -20 -16 -59 -46 -88 -65 -28 -19 -62 -45 -76 -57 -15 -13 -29 -23 -33 -23 -4 0 -27 -18 -51 -40 -24 -22 -50 -40 -58 -40 -8 0 -29 -16 -46 -35 -17 -19 -39 -35 -49 -35 -10 0 -18 -4 -18 -9 0 -5 -22 -25 -49 -44 -27 -20 -52 -45 -56 -56 -3 -12 -14 -21 -23 -21 -9 0 -30 -7 -46 -15 -36 -19 -80 -19 -95 -1 -7 8 -26 18 -42 21 -16 4 -36 18 -45 33 -8 15 -31 37 -50 50 -19 12 -34 27 -34 32 0 6 -7 10 -16 10 -9 0 -28 13 -42 28 -15 15 -45 39 -67 52 -21 13 -47 31 -56 40 -10 8 -36 29 -59 45 -23 17 -55 42 -71 57 -16 14 -33 28 -37 30 -41 16 -184 120 -201 146 -12 17 -29 32 -39 32 -10 0 -31 13 -46 29 -16 16 -39 32 -52 35 -13 4 -28 15 -34 26 -6 11 -15 20 -21 20 -6 0 -34 20 -62 45 -29 25 -56 45 -61 45 -6 0 -19 9 -31 20 -28 29 -112 90 -123 90 -4 0 -21 14 -37 30 -16 17 -32 30 -36 30 -16 0 -77 47 -135 104 -32 31 -75 65 -94 74 -19 8 -49 27 -66 41 -184 151 -208 174 -200 197 6 18 52 56 120 99 18 11 58 41 90 68 32 26 63 47 70 47 7 0 27 16 46 35 19 19 63 55 99 79 37 24 75 53 85 65 11 12 24 21 31 21 6 0 37 25 69 55 31 30 63 55 70 55 7 0 23 11 36 25 13 14 32 25 41 25 10 0 23 9 29 20 10 19 39 41 124 95 17 11 45 34 62 50 17 17 57 46 88 65 31 19 63 45 71 58 9 12 22 22 30 22 8 0 32 15 52 33 60 52 172 137 181 137 5 0 19 12 33 26 13 14 41 35 62 45 20 11 37 23 37 28 0 5 15 18 33 30 73 47 113 75 122 87 11 15 94 62 110 63 6 1 34 -7 63 -17z"></path> <path d="M1706 421 c-67 -68 -67 -68 13 -144 52 -49 71 -58 71 -32 0 20 39 19 62 -2 18 -16 21 -14 73 37 30 30 55 63 55 74 0 10 -24 43 -54 72 l-55 54 -35 -23 c-20 -12 -39 -32 -42 -45 -3 -12 -15 -27 -25 -32 -21 -12 -15 -37 14 -60 19 -15 15 -50 -5 -50 -16 0 -78 69 -78 86 0 22 60 84 82 84 10 0 18 4 18 8 0 9 -21 32 -30 32 -3 0 -32 -26 -64 -59z"></path> <path d="M3113 448 c-5 -7 -9 -51 -9 -98 l1 -85 33 -3 c35 -4 42 10 16 36 -13 13 -15 29 -11 78 5 45 2 65 -7 73 -10 8 -16 8 -23 -1z"></path> <path d="M470 355 c0 -75 3 -95 14 -95 16 0 26 21 26 58 l1 27 15 -29 c12 -21 19 -25 27 -17 17 17 34 13 40 -9 11 -43 24 -17 31 61 9 113 -6 132 -44 54 -24 -49 -43 -54 -48 -14 -4 28 -29 59 -49 59 -10 0 -13 -22 -13 -95z"></path> <path d="M863 430 c-3 -12 -18 -27 -34 -36 -25 -13 -29 -20 -29 -58 0 -64 7 -76 45 -76 40 0 59 21 51 55 -3 13 -2 44 3 67 7 29 6 46 -1 55 -15 19 -29 16 -35 -7z m-3 -100 c0 -33 -24 -42 -32 -12 -7 24 1 42 18 42 9 0 14 -11 14 -30z"></path> <path d="M1311 437 c-9 -11 -8 -17 4 -27 12 -10 16 -9 21 5 9 23 -10 40 -25 22z"></path> <path d="M1465 439 c-9 -25 -1 -174 10 -174 6 0 12 20 15 45 6 52 24 56 28 6 6 -67 62 -76 62 -10 0 42 -34 104 -57 104 -8 0 -23 10 -33 23 -16 19 -19 20 -25 6z"></path> <path d="M2034 437 c-2 -7 2 -32 11 -56 8 -24 15 -56 15 -71 0 -32 23 -55 45 -46 20 7 20 79 0 96 -8 7 -15 20 -15 29 0 20 -27 61 -41 61 -5 0 -12 -6 -15 -13z"></path> <path d="M2126 443 c-12 -13 -6 -84 8 -89 8 -3 21 -25 31 -50 9 -24 22 -44 29 -44 6 0 22 39 36 86 20 71 21 87 10 94 -22 13 -30 2 -30 -40 0 -21 -4 -41 -9 -45 -12 -7 -31 26 -31 54 0 21 -32 46 -44 34z"></path> <path d="M2267 443 c-2 -5 -1 -47 1 -95 3 -67 7 -88 18 -88 10 0 14 13 14 43 0 24 3 47 7 50 13 13 33 -16 33 -49 0 -38 12 -48 45 -40 22 6 25 11 24 56 -1 40 -5 50 -19 50 -9 0 -25 9 -35 20 -9 10 -22 18 -28 17 -6 -1 -16 8 -22 21 -9 21 -30 30 -38 15z"></path> <path d="M2790 436 c-10 -13 -9 -17 4 -22 22 -8 49 3 44 19 -7 18 -33 20 -48 3z"></path> <path d="M2395 431 c-3 -5 -1 -12 5 -16 12 -7 30 2 30 16 0 12 -27 12 -35 0z"></path> <path d="M1370 362 c0 -54 4 -72 18 -85 10 -10 24 -17 30 -17 15 0 15 35 1 59 -9 13 -9 26 -1 49 9 26 8 35 -4 47 -33 32 -44 19 -44 -53z"></path> <path d="M697 403 c-4 -3 -7 -17 -7 -30 0 -12 -9 -32 -20 -43 -25 -25 -25 -32 -2 -53 22 -20 73 -22 90 -5 21 21 15 92 -11 116 -24 23 -39 27 -50 15z"></path> <path d="M947 382 c-33 -35 -34 -70 -3 -99 24 -23 70 -31 80 -14 4 5 9 30 12 55 6 40 4 48 -17 65 -32 27 -40 26 -72 -7z"></path> <path d="M2480 397 c-41 -20 -51 -142 -12 -135 12 2 18 15 20 40 4 43 28 70 43 47 5 -8 8 -25 5 -38 -5 -31 2 -51 20 -51 8 0 14 16 16 48 2 34 7 47 18 47 10 0 17 -14 20 -45 l5 -45 67 -3 c37 -1 69 2 73 7 3 5 21 7 41 4 25 -4 39 -2 45 8 8 12 12 11 23 -3 8 -11 27 -18 49 -18 24 0 40 6 46 18 10 16 12 16 25 -1 11 -14 25 -17 58 -15 l43 3 -3 55 c-4 63 -22 90 -64 90 -27 0 -29 -2 -23 -33 8 -39 -10 -63 -52 -73 -54 -14 -80 33 -28 50 17 6 31 11 33 12 2 1 -1 12 -8 23 -13 26 -37 27 -63 4 -11 -10 -35 -18 -56 -18 -31 0 -36 -3 -36 -24 0 -13 -5 -26 -11 -28 -15 -5 -47 44 -34 52 20 12 10 35 -15 35 -50 0 -56 -82 -7 -95 l27 -7 -28 -10 c-39 -14 -57 -4 -57 31 0 32 -37 81 -62 81 -8 0 -20 -6 -26 -12 -10 -10 -17 -10 -32 0 -24 15 -29 15 -60 -1z"></path> <path d="M1113 378 c3 -13 10 -41 16 -62 14 -58 50 -73 61 -27 7 29 23 29 30 0 9 -37 26 -32 44 11 27 67 15 134 -13 72 l-13 -27 -15 29 -15 29 -18 -23 -17 -23 -22 22 c-28 28 -45 27 -38 -1z"></path> <path d="M1315 378 c-9 -24 -1 -113 10 -111 14 4 19 103 6 116 -7 7 -12 5 -16 -5z"></path> </g> </svg> 